<mxfile host="app.diagrams.net" agent="Mozilla/5.0 (X11; Linux x86_64; rv:136.0) Gecko/20100101 Firefox/136.0" version="26.2.10">
  <diagram name="第 1 页" id="1ZaeoTjxSB4YV0rP-f6S">
    <mxGraphModel dx="2833" dy="-72" grid="1" gridSize="10" guides="1" tooltips="1" connect="1" arrows="1" fold="1" page="1" pageScale="1" pageWidth="827" pageHeight="1169" math="0" shadow="0">
      <root>
        <mxCell id="0" />
        <mxCell id="1" parent="0" />
        <mxCell id="Wdo4Pw8z9_GJywiOXseX-282" value="" style="rounded=0;whiteSpace=wrap;html=1;dashed=1;strokeWidth=2;fontSize=18;" parent="1" vertex="1">
          <mxGeometry x="-60" y="2280" width="511.88" height="170" as="geometry" />
        </mxCell>
        <mxCell id="Wdo4Pw8z9_GJywiOXseX-281" value="" style="rounded=0;whiteSpace=wrap;html=1;dashed=1;strokeWidth=2;fontSize=18;" parent="1" vertex="1">
          <mxGeometry x="-180" y="2047" width="630" height="165" as="geometry" />
        </mxCell>
        <mxCell id="Wdo4Pw8z9_GJywiOXseX-280" value="" style="rounded=0;whiteSpace=wrap;html=1;dashed=1;strokeWidth=2;fontSize=18;" parent="1" vertex="1">
          <mxGeometry x="-280" y="1873" width="730" height="165" as="geometry" />
        </mxCell>
        <mxCell id="Wdo4Pw8z9_GJywiOXseX-279" value="" style="rounded=0;whiteSpace=wrap;html=1;dashed=1;strokeWidth=2;fontSize=18;" parent="1" vertex="1">
          <mxGeometry x="-370" y="1700" width="820" height="165" as="geometry" />
        </mxCell>
        <mxCell id="Wdo4Pw8z9_GJywiOXseX-166" value="" style="group;fontSize=18;" parent="1" vertex="1" connectable="0">
          <mxGeometry x="-20" y="1707" width="90" height="93" as="geometry" />
        </mxCell>
        <mxCell id="Wdo4Pw8z9_GJywiOXseX-163" value="" style="rounded=0;whiteSpace=wrap;html=1;fontSize=18;" parent="Wdo4Pw8z9_GJywiOXseX-166" vertex="1">
          <mxGeometry y="3" width="90" height="90" as="geometry" />
        </mxCell>
        <mxCell id="Wdo4Pw8z9_GJywiOXseX-159" value="&lt;b&gt;模块1&lt;/b&gt;" style="rounded=0;whiteSpace=wrap;html=1;fillColor=#dae8fc;strokeColor=#6c8ebf;shadow=1;fontSize=18;" parent="Wdo4Pw8z9_GJywiOXseX-166" vertex="1">
          <mxGeometry x="9.999999999999979" y="23" width="67.12" height="60" as="geometry" />
        </mxCell>
        <mxCell id="Wdo4Pw8z9_GJywiOXseX-165" value="&lt;b&gt;GPU 1&lt;/b&gt;" style="text;html=1;align=center;verticalAlign=middle;whiteSpace=wrap;rounded=0;fontSize=18;" parent="Wdo4Pw8z9_GJywiOXseX-166" vertex="1">
          <mxGeometry x="15" width="60" height="30" as="geometry" />
        </mxCell>
        <mxCell id="Wdo4Pw8z9_GJywiOXseX-167" value="" style="group;fontSize=18;" parent="1" vertex="1" connectable="0">
          <mxGeometry x="160" y="1707" width="90" height="93" as="geometry" />
        </mxCell>
        <mxCell id="Wdo4Pw8z9_GJywiOXseX-168" value="" style="rounded=0;whiteSpace=wrap;html=1;fontSize=18;" parent="Wdo4Pw8z9_GJywiOXseX-167" vertex="1">
          <mxGeometry y="3" width="90" height="90" as="geometry" />
        </mxCell>
        <mxCell id="Wdo4Pw8z9_GJywiOXseX-169" value="&lt;b&gt;模块2&lt;/b&gt;" style="rounded=0;whiteSpace=wrap;html=1;fillColor=#f8cecc;strokeColor=#b85450;shadow=1;fontSize=18;" parent="Wdo4Pw8z9_GJywiOXseX-167" vertex="1">
          <mxGeometry x="9.999999999999979" y="23" width="67.12" height="60" as="geometry" />
        </mxCell>
        <mxCell id="Wdo4Pw8z9_GJywiOXseX-170" value="&lt;b&gt;GPU 2&lt;/b&gt;" style="text;html=1;align=center;verticalAlign=middle;whiteSpace=wrap;rounded=0;fontSize=18;" parent="Wdo4Pw8z9_GJywiOXseX-167" vertex="1">
          <mxGeometry x="15" width="60" height="30" as="geometry" />
        </mxCell>
        <mxCell id="Wdo4Pw8z9_GJywiOXseX-178" style="edgeStyle=orthogonalEdgeStyle;rounded=0;orthogonalLoop=1;jettySize=auto;html=1;exitX=0.5;exitY=0;exitDx=0;exitDy=0;fontSize=18;" parent="1" source="Wdo4Pw8z9_GJywiOXseX-175" edge="1">
          <mxGeometry relative="1" as="geometry">
            <mxPoint x="25" y="1800" as="targetPoint" />
          </mxGeometry>
        </mxCell>
        <mxCell id="Wdo4Pw8z9_GJywiOXseX-175" value="&lt;b&gt;数据1&lt;/b&gt;" style="rounded=0;whiteSpace=wrap;html=1;fillColor=#b1ddf0;strokeColor=#10739e;fontSize=18;" parent="1" vertex="1">
          <mxGeometry x="-20" y="1820" width="90" height="36" as="geometry" />
        </mxCell>
        <mxCell id="Wdo4Pw8z9_GJywiOXseX-176" value="&lt;b&gt;数据2&lt;/b&gt;" style="rounded=0;whiteSpace=wrap;html=1;fillColor=#b1ddf0;strokeColor=#10739e;fontSize=18;" parent="1" vertex="1">
          <mxGeometry x="-120" y="1820" width="90" height="36" as="geometry" />
        </mxCell>
        <mxCell id="Wdo4Pw8z9_GJywiOXseX-177" value="" style="group;fillColor=none;fontSize=18;" parent="1" vertex="1" connectable="0">
          <mxGeometry x="100" y="1520" width="460" height="100" as="geometry" />
        </mxCell>
        <mxCell id="Wdo4Pw8z9_GJywiOXseX-153" value="" style="rounded=0;whiteSpace=wrap;html=1;fillColor=#d5e8d4;strokeColor=#82b366;fontStyle=0;shadow=1;fontSize=18;" parent="Wdo4Pw8z9_GJywiOXseX-177" vertex="1">
          <mxGeometry width="280" height="100" as="geometry" />
        </mxCell>
        <mxCell id="Wdo4Pw8z9_GJywiOXseX-154" value="&lt;b&gt;模块1&lt;/b&gt;" style="rounded=0;whiteSpace=wrap;html=1;fillColor=#dae8fc;strokeColor=#6c8ebf;shadow=1;fontSize=18;" parent="Wdo4Pw8z9_GJywiOXseX-177" vertex="1">
          <mxGeometry x="12.879999999999995" y="30" width="67.12" height="60" as="geometry" />
        </mxCell>
        <mxCell id="Wdo4Pw8z9_GJywiOXseX-155" value="&lt;b&gt;模块2&lt;/b&gt;" style="rounded=0;whiteSpace=wrap;html=1;fillColor=#f8cecc;strokeColor=#b85450;shadow=1;fontSize=18;" parent="Wdo4Pw8z9_GJywiOXseX-177" vertex="1">
          <mxGeometry x="102.88" y="30" width="67.12" height="60" as="geometry" />
        </mxCell>
        <mxCell id="Wdo4Pw8z9_GJywiOXseX-157" value="&lt;b&gt;&lt;font&gt;模型参数&lt;/font&gt;&lt;/b&gt;" style="text;html=1;align=center;verticalAlign=middle;whiteSpace=wrap;rounded=0;shadow=1;fontSize=18;" parent="Wdo4Pw8z9_GJywiOXseX-177" vertex="1">
          <mxGeometry x="92.88" width="87.12" height="30" as="geometry" />
        </mxCell>
        <mxCell id="Wdo4Pw8z9_GJywiOXseX-189" value="&lt;b&gt;模块3&lt;/b&gt;" style="rounded=0;whiteSpace=wrap;html=1;fillColor=#e1d5e7;strokeColor=#9673a6;shadow=1;fontSize=18;" parent="Wdo4Pw8z9_GJywiOXseX-177" vertex="1">
          <mxGeometry x="196.44" y="30" width="67.12" height="60" as="geometry" />
        </mxCell>
        <mxCell id="Wdo4Pw8z9_GJywiOXseX-181" value="&lt;font style=&quot;font-size: 23px;&quot;&gt;&lt;b&gt;第一个时间步&lt;/b&gt;&lt;/font&gt;" style="text;html=1;align=center;verticalAlign=middle;whiteSpace=wrap;rounded=0;fontSize=18;" parent="1" vertex="1">
          <mxGeometry x="-550" y="1754" width="190" height="30" as="geometry" />
        </mxCell>
        <mxCell id="Wdo4Pw8z9_GJywiOXseX-190" value="" style="group;fontSize=18;" parent="1" vertex="1" connectable="0">
          <mxGeometry x="330" y="1707" width="90" height="93" as="geometry" />
        </mxCell>
        <mxCell id="Wdo4Pw8z9_GJywiOXseX-191" value="" style="rounded=0;whiteSpace=wrap;html=1;fontSize=18;" parent="Wdo4Pw8z9_GJywiOXseX-190" vertex="1">
          <mxGeometry y="3" width="90" height="90" as="geometry" />
        </mxCell>
        <mxCell id="Wdo4Pw8z9_GJywiOXseX-192" value="&lt;b&gt;模块3&lt;/b&gt;" style="rounded=0;whiteSpace=wrap;html=1;fillColor=#e1d5e7;strokeColor=#9673a6;shadow=1;fontSize=18;" parent="Wdo4Pw8z9_GJywiOXseX-190" vertex="1">
          <mxGeometry x="9.999999999999979" y="23" width="67.12" height="60" as="geometry" />
        </mxCell>
        <mxCell id="Wdo4Pw8z9_GJywiOXseX-193" value="&lt;b&gt;GPU 3&lt;/b&gt;" style="text;html=1;align=center;verticalAlign=middle;whiteSpace=wrap;rounded=0;fontSize=18;" parent="Wdo4Pw8z9_GJywiOXseX-190" vertex="1">
          <mxGeometry x="15" width="60" height="30" as="geometry" />
        </mxCell>
        <mxCell id="Wdo4Pw8z9_GJywiOXseX-197" value="&lt;b&gt;数据3&lt;/b&gt;" style="rounded=0;whiteSpace=wrap;html=1;fillColor=#b1ddf0;strokeColor=#10739e;fontSize=18;" parent="1" vertex="1">
          <mxGeometry x="-220" y="1820" width="90" height="36" as="geometry" />
        </mxCell>
        <mxCell id="Wdo4Pw8z9_GJywiOXseX-198" value="" style="group;fontSize=18;" parent="1" vertex="1" connectable="0">
          <mxGeometry x="-22" y="1880" width="90" height="93" as="geometry" />
        </mxCell>
        <mxCell id="Wdo4Pw8z9_GJywiOXseX-199" value="" style="rounded=0;whiteSpace=wrap;html=1;fontSize=18;" parent="Wdo4Pw8z9_GJywiOXseX-198" vertex="1">
          <mxGeometry y="3" width="90" height="90" as="geometry" />
        </mxCell>
        <mxCell id="Wdo4Pw8z9_GJywiOXseX-200" value="&lt;b&gt;模块1&lt;/b&gt;" style="rounded=0;whiteSpace=wrap;html=1;fillColor=#dae8fc;strokeColor=#6c8ebf;shadow=1;fontSize=18;" parent="Wdo4Pw8z9_GJywiOXseX-198" vertex="1">
          <mxGeometry x="9.999999999999979" y="23" width="67.12" height="60" as="geometry" />
        </mxCell>
        <mxCell id="Wdo4Pw8z9_GJywiOXseX-201" value="&lt;b&gt;GPU 1&lt;/b&gt;" style="text;html=1;align=center;verticalAlign=middle;whiteSpace=wrap;rounded=0;fontSize=18;" parent="Wdo4Pw8z9_GJywiOXseX-198" vertex="1">
          <mxGeometry x="15" width="60" height="30" as="geometry" />
        </mxCell>
        <mxCell id="Wdo4Pw8z9_GJywiOXseX-202" value="" style="group;fontSize=18;" parent="1" vertex="1" connectable="0">
          <mxGeometry x="160" y="1880" width="90" height="93" as="geometry" />
        </mxCell>
        <mxCell id="Wdo4Pw8z9_GJywiOXseX-203" value="" style="rounded=0;whiteSpace=wrap;html=1;fontSize=18;" parent="Wdo4Pw8z9_GJywiOXseX-202" vertex="1">
          <mxGeometry y="3" width="90" height="90" as="geometry" />
        </mxCell>
        <mxCell id="Wdo4Pw8z9_GJywiOXseX-204" value="&lt;b&gt;模块2&lt;/b&gt;" style="rounded=0;whiteSpace=wrap;html=1;fillColor=#f8cecc;strokeColor=#b85450;shadow=1;fontSize=18;" parent="Wdo4Pw8z9_GJywiOXseX-202" vertex="1">
          <mxGeometry x="9.999999999999979" y="23" width="67.12" height="60" as="geometry" />
        </mxCell>
        <mxCell id="Wdo4Pw8z9_GJywiOXseX-205" value="&lt;b&gt;GPU 2&lt;/b&gt;" style="text;html=1;align=center;verticalAlign=middle;whiteSpace=wrap;rounded=0;fontSize=18;" parent="Wdo4Pw8z9_GJywiOXseX-202" vertex="1">
          <mxGeometry x="15" width="60" height="30" as="geometry" />
        </mxCell>
        <mxCell id="Wdo4Pw8z9_GJywiOXseX-206" style="edgeStyle=orthogonalEdgeStyle;rounded=0;orthogonalLoop=1;jettySize=auto;html=1;exitX=0.5;exitY=0;exitDx=0;exitDy=0;fontSize=18;" parent="1" edge="1">
          <mxGeometry relative="1" as="geometry">
            <mxPoint x="23" y="1973" as="targetPoint" />
            <mxPoint x="23" y="1993" as="sourcePoint" />
          </mxGeometry>
        </mxCell>
        <mxCell id="Wdo4Pw8z9_GJywiOXseX-208" value="&lt;b&gt;数据2&lt;/b&gt;" style="rounded=0;whiteSpace=wrap;html=1;fillColor=#b1ddf0;strokeColor=#10739e;fontSize=18;" parent="1" vertex="1">
          <mxGeometry x="-20" y="1993" width="90" height="36" as="geometry" />
        </mxCell>
        <mxCell id="Wdo4Pw8z9_GJywiOXseX-209" value="&lt;font style=&quot;font-size: 23px;&quot;&gt;&lt;b&gt;第二个时间步&lt;/b&gt;&lt;/font&gt;" style="text;html=1;align=center;verticalAlign=middle;whiteSpace=wrap;rounded=0;fontSize=18;" parent="1" vertex="1">
          <mxGeometry x="-470" y="1942" width="180" height="30" as="geometry" />
        </mxCell>
        <mxCell id="Wdo4Pw8z9_GJywiOXseX-210" value="" style="group;fontSize=18;" parent="1" vertex="1" connectable="0">
          <mxGeometry x="332" y="1879" width="90" height="93" as="geometry" />
        </mxCell>
        <mxCell id="Wdo4Pw8z9_GJywiOXseX-211" value="" style="rounded=0;whiteSpace=wrap;html=1;fontSize=18;" parent="Wdo4Pw8z9_GJywiOXseX-210" vertex="1">
          <mxGeometry y="3" width="90" height="90" as="geometry" />
        </mxCell>
        <mxCell id="Wdo4Pw8z9_GJywiOXseX-212" value="&lt;b&gt;模块3&lt;/b&gt;" style="rounded=0;whiteSpace=wrap;html=1;fillColor=#e1d5e7;strokeColor=#9673a6;shadow=1;fontSize=18;" parent="Wdo4Pw8z9_GJywiOXseX-210" vertex="1">
          <mxGeometry x="9.999999999999979" y="23" width="67.12" height="60" as="geometry" />
        </mxCell>
        <mxCell id="Wdo4Pw8z9_GJywiOXseX-213" value="&lt;b&gt;GPU 3&lt;/b&gt;" style="text;html=1;align=center;verticalAlign=middle;whiteSpace=wrap;rounded=0;fontSize=18;" parent="Wdo4Pw8z9_GJywiOXseX-210" vertex="1">
          <mxGeometry x="15" width="60" height="30" as="geometry" />
        </mxCell>
        <mxCell id="Wdo4Pw8z9_GJywiOXseX-214" value="&lt;b&gt;数据3&lt;/b&gt;" style="rounded=0;whiteSpace=wrap;html=1;fillColor=#b1ddf0;strokeColor=#10739e;fontSize=18;" parent="1" vertex="1">
          <mxGeometry x="-120" y="1993" width="90" height="36" as="geometry" />
        </mxCell>
        <mxCell id="Wdo4Pw8z9_GJywiOXseX-215" style="edgeStyle=orthogonalEdgeStyle;rounded=0;orthogonalLoop=1;jettySize=auto;html=1;exitX=1;exitY=0.5;exitDx=0;exitDy=0;entryX=0;entryY=0.5;entryDx=0;entryDy=0;fontSize=18;" parent="1" source="Wdo4Pw8z9_GJywiOXseX-199" target="Wdo4Pw8z9_GJywiOXseX-203" edge="1">
          <mxGeometry relative="1" as="geometry" />
        </mxCell>
        <mxCell id="Wdo4Pw8z9_GJywiOXseX-216" value="&lt;font style=&quot;font-size: 13px;&quot;&gt;&lt;b&gt;传送&lt;span style=&quot;color: rgb(255, 0, 0);&quot;&gt;数据1&lt;/span&gt;的计算结果&lt;/b&gt;&lt;/font&gt;" style="text;html=1;align=center;verticalAlign=middle;whiteSpace=wrap;rounded=0;fontSize=18;" parent="1" vertex="1">
          <mxGeometry x="78" y="1890" width="72" height="30" as="geometry" />
        </mxCell>
        <mxCell id="Wdo4Pw8z9_GJywiOXseX-237" value="" style="group;fontSize=18;" parent="1" vertex="1" connectable="0">
          <mxGeometry x="-22" y="2050" width="90" height="93" as="geometry" />
        </mxCell>
        <mxCell id="Wdo4Pw8z9_GJywiOXseX-238" value="" style="rounded=0;whiteSpace=wrap;html=1;fontSize=18;" parent="Wdo4Pw8z9_GJywiOXseX-237" vertex="1">
          <mxGeometry y="3" width="90" height="90" as="geometry" />
        </mxCell>
        <mxCell id="Wdo4Pw8z9_GJywiOXseX-239" value="&lt;font&gt;&lt;b&gt;模块1&lt;/b&gt;&lt;/font&gt;" style="rounded=0;whiteSpace=wrap;html=1;fillColor=#dae8fc;strokeColor=#6c8ebf;shadow=1;fontSize=18;" parent="Wdo4Pw8z9_GJywiOXseX-237" vertex="1">
          <mxGeometry x="9.999999999999979" y="23" width="67.12" height="60" as="geometry" />
        </mxCell>
        <mxCell id="Wdo4Pw8z9_GJywiOXseX-240" value="&lt;b&gt;GPU 1&lt;/b&gt;" style="text;html=1;align=center;verticalAlign=middle;whiteSpace=wrap;rounded=0;fontSize=18;" parent="Wdo4Pw8z9_GJywiOXseX-237" vertex="1">
          <mxGeometry x="15" width="60" height="30" as="geometry" />
        </mxCell>
        <mxCell id="Wdo4Pw8z9_GJywiOXseX-241" value="" style="group;fontSize=18;" parent="1" vertex="1" connectable="0">
          <mxGeometry x="160" y="2050" width="90" height="93" as="geometry" />
        </mxCell>
        <mxCell id="Wdo4Pw8z9_GJywiOXseX-242" value="" style="rounded=0;whiteSpace=wrap;html=1;fontSize=18;" parent="Wdo4Pw8z9_GJywiOXseX-241" vertex="1">
          <mxGeometry y="3" width="90" height="90" as="geometry" />
        </mxCell>
        <mxCell id="Wdo4Pw8z9_GJywiOXseX-243" value="&lt;font&gt;&lt;b&gt;模块2&lt;/b&gt;&lt;/font&gt;" style="rounded=0;whiteSpace=wrap;html=1;fillColor=#f8cecc;strokeColor=#b85450;shadow=1;fontSize=18;" parent="Wdo4Pw8z9_GJywiOXseX-241" vertex="1">
          <mxGeometry x="9.999999999999979" y="23" width="67.12" height="60" as="geometry" />
        </mxCell>
        <mxCell id="Wdo4Pw8z9_GJywiOXseX-244" value="&lt;b&gt;GPU 2&lt;/b&gt;" style="text;html=1;align=center;verticalAlign=middle;whiteSpace=wrap;rounded=0;fontSize=18;" parent="Wdo4Pw8z9_GJywiOXseX-241" vertex="1">
          <mxGeometry x="15" width="60" height="30" as="geometry" />
        </mxCell>
        <mxCell id="Wdo4Pw8z9_GJywiOXseX-245" style="edgeStyle=orthogonalEdgeStyle;rounded=0;orthogonalLoop=1;jettySize=auto;html=1;exitX=0.5;exitY=0;exitDx=0;exitDy=0;fontSize=18;" parent="1" edge="1">
          <mxGeometry relative="1" as="geometry">
            <mxPoint x="23" y="2143" as="targetPoint" />
            <mxPoint x="23" y="2163" as="sourcePoint" />
          </mxGeometry>
        </mxCell>
        <mxCell id="Wdo4Pw8z9_GJywiOXseX-246" value="&lt;b&gt;数据3&lt;/b&gt;" style="rounded=0;whiteSpace=wrap;html=1;fillColor=#b1ddf0;strokeColor=#10739e;fontSize=18;" parent="1" vertex="1">
          <mxGeometry x="-20" y="2163" width="90" height="36" as="geometry" />
        </mxCell>
        <mxCell id="Wdo4Pw8z9_GJywiOXseX-247" value="&lt;font&gt;&lt;b&gt;第三个时间步&lt;/b&gt;&lt;/font&gt;" style="text;html=1;align=center;verticalAlign=middle;whiteSpace=wrap;rounded=0;fontSize=23;" parent="1" vertex="1">
          <mxGeometry x="-360" y="2113" width="180" height="30" as="geometry" />
        </mxCell>
        <mxCell id="Wdo4Pw8z9_GJywiOXseX-248" value="" style="group;fontSize=18;" parent="1" vertex="1" connectable="0">
          <mxGeometry x="332" y="2050" width="90" height="93" as="geometry" />
        </mxCell>
        <mxCell id="Wdo4Pw8z9_GJywiOXseX-249" value="" style="rounded=0;whiteSpace=wrap;html=1;fontSize=18;" parent="Wdo4Pw8z9_GJywiOXseX-248" vertex="1">
          <mxGeometry y="3" width="90" height="90" as="geometry" />
        </mxCell>
        <mxCell id="Wdo4Pw8z9_GJywiOXseX-250" value="&lt;b&gt;模块3&lt;/b&gt;" style="rounded=0;whiteSpace=wrap;html=1;fillColor=#e1d5e7;strokeColor=#9673a6;shadow=1;fontSize=18;" parent="Wdo4Pw8z9_GJywiOXseX-248" vertex="1">
          <mxGeometry x="9.999999999999979" y="23" width="67.12" height="60" as="geometry" />
        </mxCell>
        <mxCell id="Wdo4Pw8z9_GJywiOXseX-251" value="&lt;b&gt;GPU 3&lt;/b&gt;" style="text;html=1;align=center;verticalAlign=middle;whiteSpace=wrap;rounded=0;fontSize=18;" parent="Wdo4Pw8z9_GJywiOXseX-248" vertex="1">
          <mxGeometry x="15" width="60" height="30" as="geometry" />
        </mxCell>
        <mxCell id="Wdo4Pw8z9_GJywiOXseX-253" style="edgeStyle=orthogonalEdgeStyle;rounded=0;orthogonalLoop=1;jettySize=auto;html=1;exitX=1;exitY=0.5;exitDx=0;exitDy=0;entryX=0;entryY=0.5;entryDx=0;entryDy=0;fontSize=18;" parent="1" source="Wdo4Pw8z9_GJywiOXseX-238" target="Wdo4Pw8z9_GJywiOXseX-242" edge="1">
          <mxGeometry relative="1" as="geometry" />
        </mxCell>
        <mxCell id="Wdo4Pw8z9_GJywiOXseX-254" value="&lt;font style=&quot;font-size: 14px;&quot;&gt;&lt;b&gt;传送&lt;span style=&quot;color: rgb(255, 0, 0);&quot;&gt;数据2&lt;/span&gt;的计算结果&lt;/b&gt;&lt;/font&gt;" style="text;html=1;align=center;verticalAlign=middle;whiteSpace=wrap;rounded=0;fontSize=18;" parent="1" vertex="1">
          <mxGeometry x="70" y="2060" width="80" height="30" as="geometry" />
        </mxCell>
        <mxCell id="Wdo4Pw8z9_GJywiOXseX-256" value="&lt;font style=&quot;font-size: 14px;&quot;&gt;&lt;b&gt;传送&lt;span style=&quot;color: rgb(255, 0, 0);&quot;&gt;数据1&lt;/span&gt;的计算结果&lt;/b&gt;&lt;/font&gt;" style="text;html=1;align=center;verticalAlign=middle;whiteSpace=wrap;rounded=0;fontSize=18;" parent="1" vertex="1">
          <mxGeometry x="250" y="2060" width="80" height="30" as="geometry" />
        </mxCell>
        <mxCell id="Wdo4Pw8z9_GJywiOXseX-257" style="edgeStyle=orthogonalEdgeStyle;rounded=0;orthogonalLoop=1;jettySize=auto;html=1;exitX=1;exitY=0.5;exitDx=0;exitDy=0;fontSize=18;" parent="1" source="Wdo4Pw8z9_GJywiOXseX-242" target="Wdo4Pw8z9_GJywiOXseX-249" edge="1">
          <mxGeometry relative="1" as="geometry" />
        </mxCell>
        <mxCell id="Wdo4Pw8z9_GJywiOXseX-258" value="" style="endArrow=none;dashed=1;html=1;dashPattern=1 3;strokeWidth=2;rounded=0;fontSize=18;" parent="1" edge="1">
          <mxGeometry width="50" height="50" relative="1" as="geometry">
            <mxPoint x="-160" y="2010" as="sourcePoint" />
            <mxPoint x="-132" y="2010.41" as="targetPoint" />
          </mxGeometry>
        </mxCell>
        <mxCell id="Wdo4Pw8z9_GJywiOXseX-259" value="" style="endArrow=none;dashed=1;html=1;dashPattern=1 3;strokeWidth=2;rounded=0;fontSize=18;" parent="1" edge="1">
          <mxGeometry width="50" height="50" relative="1" as="geometry">
            <mxPoint x="-260" y="1837.71" as="sourcePoint" />
            <mxPoint x="-232" y="1838.1200000000001" as="targetPoint" />
          </mxGeometry>
        </mxCell>
        <mxCell id="Wdo4Pw8z9_GJywiOXseX-260" value="&lt;b&gt;数据N&lt;/b&gt;" style="rounded=0;whiteSpace=wrap;html=1;fillColor=#b1ddf0;strokeColor=#10739e;fontSize=18;" parent="1" vertex="1">
          <mxGeometry x="-360" y="1820" width="90" height="36" as="geometry" />
        </mxCell>
        <mxCell id="Wdo4Pw8z9_GJywiOXseX-261" value="&lt;b&gt;数据N&lt;/b&gt;" style="rounded=0;whiteSpace=wrap;html=1;fillColor=#b1ddf0;strokeColor=#10739e;fontSize=18;" parent="1" vertex="1">
          <mxGeometry x="-260" y="1993" width="90" height="36" as="geometry" />
        </mxCell>
        <mxCell id="Wdo4Pw8z9_GJywiOXseX-262" value="" style="endArrow=none;dashed=1;html=1;dashPattern=1 3;strokeWidth=2;rounded=0;fontSize=18;" parent="1" edge="1">
          <mxGeometry width="50" height="50" relative="1" as="geometry">
            <mxPoint x="-60" y="2180.71" as="sourcePoint" />
            <mxPoint x="-32" y="2181.12" as="targetPoint" />
          </mxGeometry>
        </mxCell>
        <mxCell id="Wdo4Pw8z9_GJywiOXseX-263" value="&lt;b&gt;数据N&lt;/b&gt;" style="rounded=0;whiteSpace=wrap;html=1;fillColor=#b1ddf0;strokeColor=#10739e;fontSize=18;" parent="1" vertex="1">
          <mxGeometry x="-160" y="2163" width="90" height="36" as="geometry" />
        </mxCell>
        <mxCell id="Wdo4Pw8z9_GJywiOXseX-264" value="" style="endArrow=none;dashed=1;html=1;dashPattern=1 3;strokeWidth=4;rounded=0;fontSize=18;" parent="1" edge="1">
          <mxGeometry width="50" height="50" relative="1" as="geometry">
            <mxPoint x="30" y="2230" as="sourcePoint" />
            <mxPoint x="30" y="2270" as="targetPoint" />
          </mxGeometry>
        </mxCell>
        <mxCell id="Wdo4Pw8z9_GJywiOXseX-265" value="" style="group;fontSize=18;" parent="1" vertex="1" connectable="0">
          <mxGeometry x="-18.12" y="2320" width="90" height="93" as="geometry" />
        </mxCell>
        <mxCell id="Wdo4Pw8z9_GJywiOXseX-266" value="" style="rounded=0;whiteSpace=wrap;html=1;fontSize=18;" parent="Wdo4Pw8z9_GJywiOXseX-265" vertex="1">
          <mxGeometry y="3" width="90" height="90" as="geometry" />
        </mxCell>
        <mxCell id="Wdo4Pw8z9_GJywiOXseX-267" value="&lt;b&gt;模块1&lt;/b&gt;" style="rounded=0;whiteSpace=wrap;html=1;fillColor=#dae8fc;strokeColor=#6c8ebf;shadow=1;fontSize=18;" parent="Wdo4Pw8z9_GJywiOXseX-265" vertex="1">
          <mxGeometry x="9.999999999999979" y="23" width="67.12" height="60" as="geometry" />
        </mxCell>
        <mxCell id="Wdo4Pw8z9_GJywiOXseX-268" value="&lt;b&gt;GPU 1&lt;/b&gt;" style="text;html=1;align=center;verticalAlign=middle;whiteSpace=wrap;rounded=0;fontSize=18;" parent="Wdo4Pw8z9_GJywiOXseX-265" vertex="1">
          <mxGeometry x="15" width="60" height="30" as="geometry" />
        </mxCell>
        <mxCell id="Wdo4Pw8z9_GJywiOXseX-269" value="" style="group;fontSize=18;" parent="1" vertex="1" connectable="0">
          <mxGeometry x="161.88" y="2320" width="90" height="93" as="geometry" />
        </mxCell>
        <mxCell id="Wdo4Pw8z9_GJywiOXseX-270" value="" style="rounded=0;whiteSpace=wrap;html=1;fontSize=18;" parent="Wdo4Pw8z9_GJywiOXseX-269" vertex="1">
          <mxGeometry y="3" width="90" height="90" as="geometry" />
        </mxCell>
        <mxCell id="Wdo4Pw8z9_GJywiOXseX-271" value="&lt;b&gt;模块2&lt;/b&gt;" style="rounded=0;whiteSpace=wrap;html=1;fillColor=#f8cecc;strokeColor=#b85450;shadow=1;fontSize=18;" parent="Wdo4Pw8z9_GJywiOXseX-269" vertex="1">
          <mxGeometry x="9.999999999999979" y="23" width="67.12" height="60" as="geometry" />
        </mxCell>
        <mxCell id="Wdo4Pw8z9_GJywiOXseX-272" value="&lt;b&gt;GPU 2&lt;/b&gt;" style="text;html=1;align=center;verticalAlign=middle;whiteSpace=wrap;rounded=0;fontSize=18;" parent="Wdo4Pw8z9_GJywiOXseX-269" vertex="1">
          <mxGeometry x="15" width="60" height="30" as="geometry" />
        </mxCell>
        <mxCell id="Wdo4Pw8z9_GJywiOXseX-274" value="" style="group;fontSize=18;" parent="1" vertex="1" connectable="0">
          <mxGeometry x="331.88" y="2320" width="90" height="93" as="geometry" />
        </mxCell>
        <mxCell id="Wdo4Pw8z9_GJywiOXseX-283" style="edgeStyle=orthogonalEdgeStyle;rounded=0;orthogonalLoop=1;jettySize=auto;html=1;exitX=1;exitY=0.5;exitDx=0;exitDy=0;fontSize=18;" parent="Wdo4Pw8z9_GJywiOXseX-274" edge="1">
          <mxGeometry relative="1" as="geometry">
            <mxPoint x="140" y="47" as="targetPoint" />
            <mxPoint x="90" y="46" as="sourcePoint" />
          </mxGeometry>
        </mxCell>
        <mxCell id="Wdo4Pw8z9_GJywiOXseX-275" value="" style="rounded=0;whiteSpace=wrap;html=1;fontSize=18;" parent="Wdo4Pw8z9_GJywiOXseX-274" vertex="1">
          <mxGeometry y="3" width="90" height="90" as="geometry" />
        </mxCell>
        <mxCell id="Wdo4Pw8z9_GJywiOXseX-276" value="&lt;b&gt;模块3&lt;/b&gt;" style="rounded=0;whiteSpace=wrap;html=1;fillColor=#e1d5e7;strokeColor=#9673a6;shadow=1;fontSize=18;" parent="Wdo4Pw8z9_GJywiOXseX-274" vertex="1">
          <mxGeometry x="9.999999999999979" y="23" width="67.12" height="60" as="geometry" />
        </mxCell>
        <mxCell id="Wdo4Pw8z9_GJywiOXseX-277" value="&lt;b&gt;GPU 3&lt;/b&gt;" style="text;html=1;align=center;verticalAlign=middle;whiteSpace=wrap;rounded=0;fontSize=18;" parent="Wdo4Pw8z9_GJywiOXseX-274" vertex="1">
          <mxGeometry x="15" width="60" height="30" as="geometry" />
        </mxCell>
        <mxCell id="Wdo4Pw8z9_GJywiOXseX-278" value="&lt;font&gt;&lt;b&gt;第N+3个时间步&lt;/b&gt;&lt;/font&gt;" style="text;html=1;align=center;verticalAlign=middle;whiteSpace=wrap;rounded=0;fontSize=23;" parent="1" vertex="1">
          <mxGeometry x="-240" y="2352.75" width="190" height="30" as="geometry" />
        </mxCell>
        <mxCell id="Wdo4Pw8z9_GJywiOXseX-285" value="&lt;font style=&quot;font-size: 16px;&quot;&gt;&lt;b&gt;数据N的计算结果&lt;/b&gt;&lt;/font&gt;" style="rounded=0;whiteSpace=wrap;html=1;fillColor=#b1ddf0;strokeColor=#10739e;fontSize=18;" parent="1" vertex="1">
          <mxGeometry x="475.94" y="2338" width="78.12" height="59.5" as="geometry" />
        </mxCell>
        <mxCell id="Wdo4Pw8z9_GJywiOXseX-288" style="rounded=0;orthogonalLoop=1;jettySize=auto;html=1;exitX=0.5;exitY=1;exitDx=0;exitDy=0;entryX=0.5;entryY=0;entryDx=0;entryDy=0;strokeWidth=3;" parent="1" source="Wdo4Pw8z9_GJywiOXseX-154" target="Wdo4Pw8z9_GJywiOXseX-165" edge="1">
          <mxGeometry relative="1" as="geometry" />
        </mxCell>
        <mxCell id="Wdo4Pw8z9_GJywiOXseX-289" style="rounded=0;orthogonalLoop=1;jettySize=auto;html=1;exitX=0.5;exitY=1;exitDx=0;exitDy=0;strokeWidth=3;" parent="1" source="Wdo4Pw8z9_GJywiOXseX-155" target="Wdo4Pw8z9_GJywiOXseX-170" edge="1">
          <mxGeometry relative="1" as="geometry" />
        </mxCell>
        <mxCell id="Wdo4Pw8z9_GJywiOXseX-290" style="rounded=0;orthogonalLoop=1;jettySize=auto;html=1;exitX=0.5;exitY=1;exitDx=0;exitDy=0;entryX=0.5;entryY=0;entryDx=0;entryDy=0;strokeWidth=3;" parent="1" source="Wdo4Pw8z9_GJywiOXseX-189" target="Wdo4Pw8z9_GJywiOXseX-193" edge="1">
          <mxGeometry relative="1" as="geometry" />
        </mxCell>
        <mxCell id="Wdo4Pw8z9_GJywiOXseX-292" value="&lt;b&gt;&lt;font style=&quot;font-size: 32px;&quot;&gt;流水线并行&lt;/font&gt;&lt;/b&gt;" style="text;html=1;align=center;verticalAlign=middle;whiteSpace=wrap;rounded=0;" parent="1" vertex="1">
          <mxGeometry x="-320" y="1555" width="340" height="30" as="geometry" />
        </mxCell>
      </root>
    </mxGraphModel>
  </diagram>
</mxfile>
